<?xml version="1.0" standalone="no"?>
<!DOCTYPE svg PUBLIC "-//W3C//DTD SVG 20010904//EN"
 "http://www.w3.org/TR/2001/REC-SVG-20010904/DTD/svg10.dtd">
<svg version="1.0" xmlns="http://www.w3.org/2000/svg"
 width="500.000000pt" height="500.000000pt" viewBox="0 0 500.000000 500.000000"
 preserveAspectRatio="xMidYMid meet">
<metadata>
Created by potrace 1.16, written by Peter Selinger 2001-2019
</metadata>
<g transform="translate(0.000000,500.000000) scale(0.100000,-0.100000)"
fill="#000000" stroke="none">
<path d="M1923 3116 c-279 -91 -406 -473 -263 -791 33 -74 172 -250 235 -299
128 -97 312 -104 440 -16 182 125 264 392 199 643 -22 84 -51 138 -132 243
-131 169 -215 224 -355 230 -53 3 -97 -1 -124 -10z m275 -46 c109 -58 195
-176 227 -312 19 -81 19 -235 0 -317 -56 -238 -259 -392 -461 -351 -224 46
-357 262 -341 554 10 180 80 322 200 405 71 48 121 62 222 58 80 -3 97 -7 153
-37z"/>
<path d="M1976 3030 c-14 -17 -29 -47 -33 -68 -4 -20 -8 -188 -8 -372 0 -301
2 -340 18 -383 20 -52 40 -67 86 -67 39 0 67 36 81 105 7 36 10 168 8 387 -3
321 -4 334 -25 374 -34 64 -85 73 -127 24z m132 -462 c-3 -352 -7 -388 -44
-402 -12 -4 -14 50 -14 323 0 318 4 372 33 409 5 6 14 12 19 12 5 0 8 -137 6
-342z"/>
<path d="M690 3069 c0 -34 8 -52 50 -104 l50 -63 -2 -364 -3 -363 -47 -3 -48
-3 0 -39 c0 -31 10 -51 56 -109 l55 -71 363 0 363 0 7 77 c3 42 6 140 6 218
l0 141 -51 67 c-50 65 -53 67 -95 67 -44 0 -44 0 -44 -35 0 -70 -70 -216 -129
-269 l-21 -19 0 346 0 347 45 0 45 0 0 43 c0 35 -8 52 -53 109 l-52 67 -247 1
-248 0 0 -41z m490 -9 c0 -27 -3 -30 -32 -30 -66 0 -63 19 -66 -407 -1 -214 1
-406 6 -428 8 -39 9 -40 49 -39 52 1 93 30 143 104 36 54 90 187 90 224 0 11
9 16 30 16 l30 0 0 -62 c0 -35 -3 -127 -7 -205 l-6 -143 -354 0 -353 0 0 30
c0 26 3 30 29 30 65 0 61 -30 61 440 0 470 4 440 -61 440 -26 0 -29 4 -29 30
l0 30 235 0 235 0 0 -30z"/>
<path d="M2620 3064 c0 -39 6 -53 45 -101 l45 -55 0 -369 0 -369 -45 0 -45 0
0 -42 c0 -36 8 -53 53 -110 l52 -67 238 -1 c178 0 237 3 237 12 0 9 3 9 12 0
9 -9 77 -12 245 -12 l233 0 0 47 c0 40 -7 55 -47 109 -27 35 -54 64 -61 66 -7
2 -65 111 -128 243 -97 202 -113 243 -104 259 7 10 50 63 98 117 l85 99 49 0
48 0 0 41 c0 36 -8 52 -55 110 l-56 69 -139 0 -140 0 0 -42 c0 -26 8 -53 19
-67 19 -24 18 -25 -2 -53 -25 -34 -37 -36 -37 -4 0 14 -23 54 -56 95 l-55 71
-245 0 -244 0 0 -46z m490 -4 c0 -27 -3 -30 -33 -30 -66 0 -68 -5 -65 -204 l3
-179 155 177 c85 98 155 183 155 190 0 6 -16 13 -35 16 -29 4 -35 9 -35 30 l0
25 133 3 132 3 0 -31 c0 -28 -2 -30 -39 -30 -46 0 -55 -7 -152 -120 -40 -47
-81 -94 -91 -106 -18 -20 -16 -25 128 -325 80 -167 151 -310 156 -316 6 -7 21
-13 34 -13 20 0 24 -5 24 -30 l0 -30 -225 0 -225 0 0 29 c0 25 4 30 28 33 18
2 28 9 30 24 4 29 -160 388 -170 372 -4 -7 -8 -94 -8 -193 0 -195 2 -205 52
-205 24 0 28 -4 28 -30 l0 -30 -227 2 -228 3 -3 28 c-3 25 -1 27 35 27 22 0
44 5 51 12 9 9 12 118 12 430 0 402 -1 418 -19 428 -11 5 -33 10 -50 10 -28 0
-31 3 -31 30 l0 30 240 0 240 0 0 -30z"/>
<path d="M3710 3062 c0 -42 5 -53 45 -99 l45 -51 0 -371 0 -371 -45 0 -45 0 0
-42 c0 -36 8 -53 53 -110 l52 -67 248 -1 247 0 0 44 c0 36 -8 53 -50 109 l-50
66 2 358 3 358 48 3 47 3 0 38 c0 31 -10 51 -57 110 l-56 71 -244 0 -243 0 0
-48z m490 -2 c0 -27 -3 -30 -31 -30 -17 0 -39 -5 -50 -10 -18 -10 -19 -26 -19
-428 0 -312 3 -421 12 -430 7 -7 29 -12 51 -12 36 0 38 -2 35 -27 l-3 -28
-235 0 -235 0 0 25 c0 21 5 25 35 28 19 2 41 8 47 14 10 8 13 106 13 429 0
403 -1 419 -19 429 -11 5 -33 10 -50 10 -28 0 -31 3 -31 30 l0 30 240 0 240 0
0 -30z"/>
</g>
</svg>
